<svg width="124" height="20" viewBox="0 0 124 20" fill="none" xmlns="http://www.w3.org/2000/svg">
<g clip-path="url(#clip0_5_51)">
<path d="M5.12939 10.504L6.28139 10.552C7.48139 10.552 8.58539 10.36 9.59339 9.97602C10.1854 9.75202 10.6574 9.40002 11.0094 8.92002C11.3774 8.44002 11.5614 7.84802 11.5614 7.14402C11.5614 4.61602 10.0414 3.35202 7.00139 3.35202L4.50539 3.44802V17.272C4.50539 17.496 4.52139 17.672 4.55339 17.8C4.58539 17.928 4.68939 18.048 4.86539 18.16C5.04139 18.272 5.30539 18.328 5.65739 18.328H6.56939V19H0.473389V18.328H1.24139C1.59339 18.328 1.85739 18.272 2.03339 18.16C2.20939 18.048 2.31339 17.928 2.34539 17.8C2.37739 17.672 2.39339 17.496 2.39339 17.272V3.97602C2.39339 3.60802 2.31339 3.34402 2.15339 3.18402C2.00939 3.00802 1.70539 2.92002 1.24139 2.92002H0.473389V2.20002H4.16939L8.72939 1.96002C10.1694 1.96002 11.3294 2.27202 12.2094 2.89602C13.0894 3.52002 13.5294 4.40002 13.5294 5.53602C13.5294 6.65602 13.2654 7.64002 12.7374 8.48802C12.2254 9.32002 11.5854 9.94402 10.8174 10.36C9.36139 11.128 8.05739 11.512 6.90539 11.512C6.23339 11.512 5.70539 11.496 5.32139 11.464L5.12939 10.504Z" fill="black"/>
<path d="M32.4778 19H26.3818V18.328H27.1498C27.5018 18.328 27.7658 18.272 27.9418 18.16C28.1178 18.032 28.2218 17.904 28.2538 17.776C28.2858 17.648 28.3018 17.464 28.3018 17.224V10.792H18.9898V17.224C18.9898 17.576 19.0618 17.848 19.2058 18.04C19.3498 18.232 19.6618 18.328 20.1418 18.328H21.0538V19H14.9578V18.328H15.7738C16.2538 18.328 16.5658 18.232 16.7098 18.04C16.8538 17.848 16.9258 17.576 16.9258 17.224V3.97601C16.9258 3.62401 16.8538 3.35201 16.7098 3.16001C16.5658 2.96801 16.2538 2.87201 15.7738 2.87201H14.9578V2.20001H21.0538V2.87201H20.1418C19.6618 2.87201 19.3498 2.96801 19.2058 3.16001C19.0618 3.35201 18.9898 3.62401 18.9898 3.97601V9.73601H28.3018V3.97601C28.3018 3.73601 28.2858 3.55201 28.2538 3.42401C28.2218 3.29601 28.1178 3.17601 27.9418 3.06401C27.7658 2.93601 27.5018 2.87201 27.1498 2.87201H26.3818V2.20001H32.4778V2.87201H31.5658C31.2138 2.87201 30.9498 2.93601 30.7738 3.06401C30.5978 3.17601 30.4938 3.29601 30.4618 3.42401C30.4298 3.55201 30.4138 3.73601 30.4138 3.97601V17.224C30.4138 17.464 30.4298 17.648 30.4618 17.776C30.4938 17.904 30.5978 18.032 30.7738 18.16C30.9498 18.272 31.2138 18.328 31.5658 18.328H32.4778V19Z" fill="black"/>
<path d="M50.7315 19H44.5875V18.328H45.3554C46.0594 18.328 46.4114 18.104 46.4114 17.656C46.4114 17.592 46.3315 17.32 46.1715 16.84L44.5395 12.568H38.4915L36.9075 16.648C36.9075 16.68 36.8515 16.88 36.7395 17.248C36.6275 17.6 36.5715 17.848 36.5715 17.992C36.5715 18.12 36.6595 18.208 36.8355 18.256C37.0115 18.304 37.3875 18.328 37.9635 18.328H38.3475V19H33.6435V18.328H33.9795C34.5075 18.328 34.8915 18.24 35.1315 18.064C35.3715 17.872 35.5795 17.56 35.7555 17.128L41.0354 3.35201C41.1155 3.33601 41.2595 3.22401 41.4675 3.01601C41.6755 2.79201 41.8675 2.56801 42.0435 2.34401C42.2195 2.10401 42.3074 1.96801 42.3074 1.93601C42.3074 1.90401 42.2995 1.88001 42.2835 1.86401L42.6194 1.76801L48.5235 17.224C48.6995 17.592 48.8755 17.872 49.0515 18.064C49.2435 18.24 49.5155 18.328 49.8675 18.328H50.7315V19ZM44.1075 11.56L41.5154 4.69601L38.8755 11.56H44.1075Z" fill="black"/>
<path d="M58.0381 19H51.9421V18.328H52.7581C53.2381 18.328 53.5501 18.232 53.6941 18.04C53.8381 17.848 53.9101 17.576 53.9101 17.224V3.97601C53.9101 3.62401 53.8381 3.35201 53.6941 3.16001C53.5501 2.96801 53.2381 2.87201 52.7581 2.87201H51.9421V2.20001H58.0381V2.87201H57.1261C56.6461 2.87201 56.3341 2.96801 56.1901 3.16001C56.0461 3.35201 55.9741 3.62401 55.9741 3.97601V17.224C55.9741 17.576 56.0461 17.848 56.1901 18.04C56.3341 18.232 56.6461 18.328 57.1261 18.328H58.0381V19Z" fill="black"/>
<path d="M63.6538 2.20002L68.2138 1.96002C69.6218 1.96002 70.7738 2.25602 71.6698 2.84802C72.5658 3.44002 73.0138 4.24802 73.0138 5.27202C73.0138 6.69602 72.6298 7.85602 71.8618 8.75202C71.0938 9.64802 70.1498 10.328 69.0298 10.792L72.9178 16.648C73.0778 16.904 73.3818 17.248 73.8298 17.68C74.2938 18.112 74.7098 18.328 75.0778 18.328H75.5098V19H71.9578C72.0058 19 71.8538 18.76 71.5018 18.28C71.1498 17.8 70.9498 17.512 70.9018 17.416L66.9178 11.272C66.7578 11.304 66.4378 11.32 65.9578 11.32C65.4778 11.32 65.0938 11.304 64.8058 11.272L64.6138 10.312C64.8378 10.344 65.3178 10.36 66.0538 10.36C66.7898 10.36 67.5258 10.264 68.2618 10.072C68.9978 9.88002 69.6458 9.52002 70.2058 8.99202C70.7658 8.44802 71.0458 7.75202 71.0458 6.90402C71.0458 4.53602 69.5258 3.35202 66.4858 3.35202L63.9898 3.44802V17.224C63.9898 17.464 64.0058 17.648 64.0378 17.776C64.0698 17.904 64.1738 18.032 64.3498 18.16C64.5258 18.272 64.7898 18.328 65.1418 18.328H66.0538V19H59.9578V18.328H60.7258C61.0778 18.328 61.3418 18.272 61.5178 18.16C61.6938 18.032 61.7978 17.904 61.8298 17.776C61.8618 17.648 61.8778 17.464 61.8778 17.224V3.97602C61.8778 3.60802 61.7978 3.34402 61.6378 3.18402C61.4938 3.00802 61.1898 2.92002 60.7258 2.92002H59.9578V2.20002H63.6538Z" fill="black"/>
<path d="M90.4447 12.088V3.97601C90.4447 3.27201 89.9487 2.92001 88.9567 2.92001H88.1887V2.20001H93.9487V2.92001H93.0367C92.5087 2.92001 92.1087 3.02401 91.8367 3.23201C91.5807 3.42401 91.4527 3.67201 91.4527 3.97601V12.088C91.4527 13.304 91.2287 14.408 90.7807 15.4C90.3487 16.376 89.7887 17.152 89.1007 17.728C87.6767 18.896 86.1727 19.48 84.5887 19.48C83.0047 19.48 81.5967 18.984 80.3647 17.992C79.1487 17 78.5407 15.832 78.5407 14.488V3.97601C78.5407 3.73601 78.5247 3.55201 78.4927 3.42401C78.4607 3.29601 78.3567 3.18401 78.1807 3.08801C78.0047 2.97601 77.7407 2.92001 77.3887 2.92001H76.5727V2.20001H82.7167V2.92001H81.8047C81.4527 2.92001 81.1887 2.97601 81.0127 3.08801C80.8367 3.18401 80.7327 3.29601 80.7007 3.42401C80.6687 3.55201 80.6527 3.73601 80.6527 3.97601V12.424C80.6527 14.2 81.0527 15.488 81.8527 16.288C82.6687 17.072 83.8847 17.464 85.5007 17.464C86.2527 17.464 86.9407 17.336 87.5647 17.08C88.1887 16.824 88.6847 16.52 89.0527 16.168C89.4367 15.816 89.7647 15.288 90.0367 14.584C90.3087 13.864 90.4447 13.032 90.4447 12.088Z" fill="black"/>
<path d="M119.975 15.1283C119.975 17.8189 117.369 20.0001 114.155 20.0001C110.941 20.0001 108.335 17.8189 108.335 15.1283C108.335 12.4377 110.941 10.2565 114.155 10.2565C117.369 10.2565 119.975 12.4377 119.975 15.1283Z" fill="#1F1F1F"/>
<path d="M113.128 1.027C113.128 0.459802 113.588 0 114.155 0C114.722 0 115.182 0.459804 115.182 1.027V8.20376C115.182 8.77096 114.722 9.23076 114.155 9.23076C113.588 9.23076 113.128 8.77096 113.128 8.20376V1.027Z" fill="#1F1F1F"/>
<path d="M109.127 1.6511C109.036 1.09321 109.418 0.598967 109.981 0.547193C110.544 0.495419 111.074 0.905713 111.166 1.46361L112.336 8.60524C112.428 9.16314 112.046 9.65737 111.483 9.70915C110.92 9.76092 110.389 9.35063 110.298 8.79273L109.127 1.6511Z" fill="#1F1F1F"/>
<path d="M104.281 7.63605C103.857 7.08576 104.03 6.41611 104.668 6.14034C105.306 5.86456 106.167 6.0871 106.591 6.63738L109.163 9.97401C109.587 10.5243 109.414 11.1939 108.776 11.4697C108.138 11.7455 107.278 11.5229 106.853 10.9727L104.281 7.63605Z" fill="#1F1F1F"/>
<path d="M117.175 1.51311C117.266 0.955214 117.797 0.544919 118.36 0.596693C118.923 0.648468 119.305 1.14271 119.213 1.7006L118.043 8.84223C117.951 9.40013 117.421 9.81043 116.858 9.75865C116.295 9.70688 115.912 9.21264 116.004 8.65474L117.175 1.51311Z" fill="#1F1F1F"/>
<path d="M120.411 4.96733C120.557 4.42999 121.124 4.04117 121.677 4.09888C122.231 4.15659 122.562 4.63897 122.416 5.17631L121.03 10.2979C120.884 10.8352 120.317 11.224 119.764 11.1663C119.21 11.1086 118.879 10.6262 119.024 10.0889L120.411 4.96733Z" fill="#1F1F1F"/>
</g>
<defs>
<clipPath id="clip0_5_51">
<rect width="124" height="20" fill="white"/>
</clipPath>
</defs>
</svg>
