<svg width="131" height="40" viewBox="0 0 131 40" fill="none" xmlns="http://www.w3.org/2000/svg">
<path d="M0.160004 39.192L0.576004 38.264C2.432 38.2853 3.53067 37.848 3.872 36.952C4.02134 36.5253 4.17067 35.7253 4.32 34.552C4.46934 33.3787 4.608 31.8427 4.736 29.944C4.88534 27.7893 4.98134 25.9333 5.024 24.376C5.088 22.8187 5.12 21.5813 5.12 20.664C5.12 19.8107 5.03467 19.2027 4.864 18.84C4.69334 18.4773 4.192 18.296 3.36 18.296C2.976 18.296 2.53867 18.36 2.048 18.488L2.56 17.528C3.17867 17.6133 4.61867 17.7093 6.88 17.816C7.17867 17.816 7.62667 17.7947 8.224 17.752C8.82134 17.7093 9.45067 17.6667 10.112 17.624C10.7947 17.5813 11.3813 17.56 11.872 17.56C13.728 17.56 15.2 17.912 16.288 18.616C17.3973 19.2987 17.952 20.5253 17.952 22.296C17.952 23.7893 17.5573 25.0907 16.768 26.2C16 27.3093 14.9867 28.1733 13.728 28.792C12.4907 29.3893 11.1573 29.688 9.728 29.688C9.28 29.688 8.81067 29.656 8.32 29.592L8.832 28.792C10.0267 28.8347 11.1147 28.632 12.096 28.184C13.0987 27.7147 13.8987 27.0427 14.496 26.168C15.1147 25.2933 15.424 24.2693 15.424 23.096C15.424 22.1573 15.2 21.368 14.752 20.728C14.3253 20.088 13.7493 19.608 13.024 19.288C12.2987 18.9467 11.52 18.776 10.688 18.776C10.176 18.776 9.664 18.84 9.152 18.968C8.87467 19.0107 8.66134 19.1067 8.512 19.256C8.36267 19.4053 8.256 19.6507 8.192 19.992C8.128 20.3547 8.05334 20.888 7.968 21.592C7.88267 22.296 7.808 23.0533 7.744 23.864C7.68 24.6533 7.616 25.4 7.552 26.104C7.46667 27.2773 7.38134 28.472 7.296 29.688C7.21067 30.8827 7.136 32.0027 7.072 33.048C7.02934 34.0933 7.008 34.9893 7.008 35.736C7.008 36.1413 7.01867 36.4933 7.04 36.792C7.06134 37.0907 7.09334 37.3147 7.136 37.464C7.2 37.592 7.40267 37.72 7.744 37.848C8.08534 37.9547 8.46934 38.04 8.896 38.104C9.344 38.168 9.76 38.2107 10.144 38.232C10.5493 38.2533 10.848 38.2533 11.04 38.232L10.56 39.16C10.0267 39.1173 9.57867 39.0747 9.216 39.032C8.85334 39.0107 8.512 38.9893 8.192 38.968C7.89334 38.9253 7.54134 38.904 7.136 38.904C6.73067 38.8827 6.208 38.872 5.568 38.872C5.12 38.872 4.53334 38.8933 3.808 38.936C3.104 38.9787 2.41067 39.0213 1.728 39.064C1.04534 39.128 0.52267 39.1707 0.160004 39.192Z" fill="black"/>
<path d="M28.717 39.256C28.141 39.1493 27.4157 39.064 26.541 39C25.6877 38.9147 24.7597 38.872 23.757 38.872C22.8397 38.872 21.901 38.904 20.941 38.968C20.0023 39.0107 19.117 39.096 18.285 39.224L18.765 38.264C18.8717 38.2853 18.9783 38.3067 19.085 38.328C19.1917 38.328 19.2983 38.328 19.405 38.328C20.0023 38.328 20.6103 38.2 21.229 37.944C21.869 37.688 22.2637 37.3253 22.413 36.856C22.7117 35.8747 22.989 33.6133 23.245 30.072C23.501 26.1893 23.629 23.2987 23.629 21.4C23.629 20.2267 23.5543 19.416 23.405 18.968C23.277 18.52 22.829 18.296 22.061 18.296C21.8477 18.296 21.613 18.3067 21.357 18.328C21.1223 18.3493 20.8557 18.3813 20.557 18.424L21.069 17.464C21.2823 17.4853 21.6557 17.528 22.189 17.592C22.7223 17.6347 23.277 17.6773 23.853 17.72C24.429 17.7413 24.877 17.752 25.197 17.752C26.029 17.752 26.893 17.7093 27.789 17.624C28.685 17.5387 29.517 17.464 30.285 17.4L29.549 18.264C29.4423 18.2427 29.3357 18.232 29.229 18.232C29.1223 18.2107 29.0157 18.2 28.909 18.2C28.1837 18.2 27.6397 18.4347 27.277 18.904C26.9143 19.352 26.6583 19.9813 26.509 20.792C26.3597 21.6027 26.253 22.552 26.189 23.64C26.1463 24.7067 26.0823 25.8693 25.997 27.128C28.365 27.256 30.573 27.32 32.621 27.32C33.8157 27.32 34.989 27.3093 36.141 27.288C37.293 27.2453 38.4557 27.2027 39.629 27.16C39.7357 25.8373 39.7997 24.6533 39.821 23.608C39.8423 22.5627 39.853 21.6773 39.853 20.952C39.853 19.9493 39.7677 19.2453 39.597 18.84C39.4477 18.4347 38.9357 18.232 38.061 18.232C37.677 18.232 37.229 18.296 36.717 18.424L37.261 17.464C37.4743 17.4853 37.8583 17.528 38.413 17.592C38.9677 17.6347 39.5437 17.6773 40.141 17.72C40.7597 17.7413 41.2397 17.752 41.581 17.752C41.9863 17.752 42.477 17.7307 43.053 17.688C43.629 17.6453 44.2157 17.6027 44.813 17.56C45.4317 17.496 45.9863 17.4427 46.477 17.4L45.741 18.264C45.6557 18.2427 45.5597 18.232 45.453 18.232C45.3677 18.232 45.2717 18.232 45.165 18.232C44.397 18.232 43.853 18.392 43.533 18.712C43.213 19.032 43.0103 19.5333 42.925 20.216C42.8397 20.8773 42.733 21.72 42.605 22.744C42.477 23.8533 42.3597 25.0267 42.253 26.264C42.1463 27.5013 42.0503 28.7813 41.965 30.104C41.9437 31.2133 41.9117 32.2053 41.869 33.08C41.8477 33.9333 41.837 34.6587 41.837 35.256C41.837 36.1307 41.933 36.792 42.125 37.24C42.317 37.6667 42.6797 37.944 43.213 38.072C43.7463 38.2 44.5037 38.2427 45.485 38.2L44.845 39.256C44.4183 39.1493 43.7677 39.064 42.893 39C42.0183 38.9147 41.0477 38.872 39.981 38.872C39.0637 38.872 38.125 38.904 37.165 38.968C36.205 39.032 35.309 39.1173 34.477 39.224L34.957 38.264C35.2557 38.328 35.565 38.36 35.885 38.36C36.461 38.36 37.005 38.2427 37.517 38.008C38.0503 37.7733 38.3917 37.4107 38.541 36.92C38.6903 36.4293 38.8183 35.8 38.925 35.032C39.0317 34.2427 39.117 33.432 39.181 32.6C39.2663 31.7467 39.3303 30.9787 39.373 30.296C39.437 29.592 39.4797 29.0693 39.501 28.728C36.7917 28.664 34.349 28.632 32.173 28.632C29.7623 28.632 27.6717 28.664 25.901 28.728C25.8797 29.0907 25.8477 29.688 25.805 30.52C25.7837 31.3307 25.7517 32.2053 25.709 33.144C25.6877 34.0613 25.677 34.8827 25.677 35.608C25.677 35.8853 25.677 36.1413 25.677 36.376C25.677 36.5893 25.6877 36.7707 25.709 36.92C25.7517 37.3893 26.061 37.7307 26.637 37.944C27.2343 38.1573 27.8423 38.264 28.461 38.264C28.6103 38.264 28.749 38.264 28.877 38.264C29.0263 38.2427 29.165 38.2213 29.293 38.2L28.717 39.256Z" fill="black"/>
<path d="M45.537 39.256L46.017 38.296C47.1903 38.1467 47.9477 37.976 48.289 37.784C48.5237 37.6347 48.7583 37.4107 48.993 37.112C49.2277 36.8133 49.4517 36.4293 49.665 35.96L56.225 21.976C56.6517 21.08 56.865 20.408 56.865 19.96C56.865 19.8533 56.8543 19.7573 56.833 19.672C56.8117 19.5653 56.801 19.4587 56.801 19.352C56.801 19.2453 56.8437 19.1493 56.929 19.064C57.0143 18.9787 57.0997 18.8933 57.185 18.808C57.8037 18.2747 58.433 17.8053 59.073 17.4L59.265 17.464C59.4357 18.0827 59.6703 18.968 59.969 20.12C60.289 21.272 60.6517 22.552 61.057 23.96C61.4623 25.368 61.8783 26.7973 62.305 28.248C62.7317 29.6773 63.137 31.032 63.521 32.312C63.905 33.5707 64.2357 34.6267 64.513 35.48C64.7903 36.312 64.9717 36.824 65.057 37.016C65.249 37.4213 65.537 37.7093 65.921 37.88C66.305 38.0293 66.8063 38.1467 67.425 38.232C67.5957 38.2533 67.7557 38.264 67.905 38.264C68.0757 38.264 68.2463 38.264 68.417 38.264L67.905 39.224C66.6677 39.16 65.697 39.1173 64.993 39.096C64.3103 39.0747 63.8837 39.064 63.713 39.064C63.5637 39.064 63.2863 39.064 62.881 39.064C62.4757 39.064 61.9637 39.0853 61.345 39.128L59.265 39.224L59.137 39.064L59.489 38.296C61.0677 38.296 61.857 37.9867 61.857 37.368C61.857 37.1973 61.761 36.728 61.569 35.96C61.377 35.192 61.0783 33.9653 60.673 32.28C60.609 32.0667 60.513 31.96 60.385 31.96H53.217C53.089 31.96 52.993 32.0133 52.929 32.12C52.4597 33.1013 52.0543 33.9547 51.713 34.68C51.393 35.4053 51.137 36.0027 50.945 36.472C50.8597 36.6853 50.7743 36.8987 50.689 37.112C50.6037 37.304 50.561 37.4533 50.561 37.56C50.561 38.0507 51.457 38.2853 53.249 38.264L52.737 39.224C52.3103 39.16 51.7983 39.1173 51.201 39.096C50.625 39.0747 49.9637 39.064 49.217 39.064C48.449 39.064 47.7663 39.0747 47.169 39.096C46.5717 39.1173 46.0277 39.1707 45.537 39.256ZM53.697 30.648H60.097C60.1823 30.648 60.2037 30.616 60.161 30.552C59.7557 29.1227 59.3397 27.6933 58.913 26.264C58.4863 24.8133 58.0597 23.4267 57.633 22.104C57.2703 22.808 56.9183 23.512 56.577 24.216C56.2357 24.92 55.841 25.7733 55.393 26.776C54.945 27.7573 54.3583 29.016 53.633 30.552C53.6117 30.616 53.633 30.648 53.697 30.648Z" fill="black"/>
<path d="M79.2163 39.256C79.0243 39.1707 78.4483 39.0853 77.4883 39C76.5496 38.8933 75.4829 38.84 74.2883 38.84C73.3709 38.84 72.4536 38.8827 71.5363 38.968C70.6403 39.0533 69.7336 39.1387 68.8163 39.224L69.2963 38.264C69.5309 38.328 69.7976 38.36 70.0963 38.36C70.6509 38.36 71.2163 38.2427 71.7923 38.008C72.3683 37.7733 72.7309 37.4107 72.8803 36.92C73.2003 35.8533 73.4883 33.5173 73.7443 29.912C73.8083 29.0373 73.8723 28.0773 73.9363 27.032C74.0003 25.9653 74.0429 24.92 74.0643 23.896C74.1069 22.872 74.1283 21.9973 74.1283 21.272C74.1283 21.0587 74.1176 20.8667 74.0963 20.696C74.0963 20.504 74.0963 20.344 74.0963 20.216C74.0749 19.5333 73.9576 19.0533 73.7443 18.776C73.5309 18.4773 73.1363 18.328 72.5603 18.328C72.3683 18.328 72.1443 18.3493 71.8883 18.392C71.6323 18.4133 71.3549 18.4453 71.0563 18.488L71.6003 17.464C71.8136 17.4853 72.1549 17.528 72.6243 17.592C73.0936 17.6347 73.6163 17.6773 74.1923 17.72C74.7896 17.7413 75.3656 17.752 75.9203 17.752C76.6669 17.752 77.4883 17.7093 78.3843 17.624C79.2803 17.5387 80.0909 17.464 80.8163 17.4L80.0483 18.328C79.8989 18.3067 79.7603 18.296 79.6323 18.296C79.5256 18.2747 79.4189 18.264 79.3123 18.264C78.6083 18.264 78.1069 18.4667 77.8083 18.872C77.5309 19.2773 77.3176 19.8533 77.1683 20.6C77.0189 21.4747 76.8696 22.6907 76.7203 24.248C76.5923 25.784 76.4643 27.6827 76.3363 29.944C76.3149 30.7973 76.2829 31.7147 76.2403 32.696C76.1976 33.656 76.1763 34.5307 76.1763 35.32C76.1763 35.6613 76.1763 35.9707 76.1763 36.248C76.1976 36.504 76.2189 36.728 76.2403 36.92C76.2829 37.3893 76.5923 37.7413 77.1683 37.976C77.7443 38.1893 78.3309 38.296 78.9283 38.296C79.2483 38.296 79.5363 38.264 79.7923 38.2L79.2163 39.256Z" fill="black"/>
<path d="M102.345 39.352C101.043 39.352 99.9021 39.1173 98.9208 38.648C97.9608 38.1573 97.1821 37.4213 96.5848 36.44C95.6674 34.9253 94.9314 33.7307 94.3768 32.856C93.8434 31.96 93.4274 31.2773 93.1288 30.808C92.8301 30.3387 92.5848 29.9867 92.3928 29.752C92.2008 29.496 91.9981 29.272 91.7848 29.08C91.4434 29.1227 91.1128 29.1547 90.7928 29.176C90.4941 29.1973 90.1954 29.208 89.8968 29.208L90.4088 28.344C92.1581 28.344 93.5981 27.896 94.7288 27C95.8594 26.104 96.4888 24.8133 96.6168 23.128C96.6808 21.784 96.3074 20.7387 95.4968 19.992C94.7074 19.2453 93.7048 18.872 92.4888 18.872C91.6354 18.872 90.9528 18.904 90.4408 18.968C89.9501 19.032 89.6514 19.2773 89.5448 19.704C89.4381 20.344 89.3314 21.1973 89.2248 22.264C89.1181 23.3307 89.0114 24.504 88.9048 25.784C88.7981 27.064 88.7021 28.344 88.6168 29.624C88.5314 30.8827 88.4568 32.0347 88.3928 33.08C88.3501 34.1253 88.3288 34.9467 88.3288 35.544C88.3288 36.4187 88.4248 37.048 88.6168 37.432C88.8301 37.816 89.2034 38.0507 89.7368 38.136C90.2914 38.2213 91.0701 38.264 92.0728 38.264L91.4968 39.224C90.8781 39.1173 90.2168 39.0427 89.5128 39C88.8088 38.936 88.0728 38.904 87.3048 38.904C86.7501 38.904 85.9501 38.936 84.9048 39C83.8808 39.0427 82.6221 39.1173 81.1288 39.224L81.5768 38.296C81.7474 38.3387 81.9181 38.36 82.0888 38.36C82.4514 38.36 82.8568 38.3067 83.3048 38.2C83.7741 38.072 84.1901 37.9013 84.5528 37.688C84.9154 37.4533 85.1394 37.1867 85.2248 36.888C85.3528 36.4187 85.4808 35.6933 85.6088 34.712C85.7368 33.7307 85.8434 32.6213 85.9288 31.384C86.0354 30.1253 86.1208 28.856 86.1848 27.576C86.2701 26.296 86.3341 25.112 86.3768 24.024C86.4194 22.936 86.4408 22.072 86.4408 21.432C86.4408 20.3013 86.3554 19.4907 86.1848 19C86.0354 18.5093 85.6088 18.264 84.9048 18.264C84.6914 18.264 84.4568 18.2853 84.2008 18.328C83.9448 18.3707 83.6568 18.424 83.3368 18.488L83.9128 17.528C84.1261 17.5493 84.4568 17.592 84.9048 17.656C85.3741 17.6987 85.9074 17.7413 86.5048 17.784C87.1021 17.8053 87.6781 17.816 88.2328 17.816C88.5528 17.816 88.9688 17.8053 89.4808 17.784C89.9928 17.7627 90.5154 17.7307 91.0488 17.688C91.6034 17.6453 92.0941 17.6133 92.5208 17.592C92.9688 17.5707 93.2674 17.56 93.4168 17.56C95.2301 17.56 96.6701 17.88 97.7368 18.52C98.8034 19.16 99.3368 20.3227 99.3368 22.008C99.3368 22.904 99.1234 23.7893 98.6968 24.664C98.2914 25.5173 97.7474 26.2533 97.0648 26.872C96.3821 27.4907 95.6461 27.9173 94.8568 28.152C95.4114 29.304 96.0834 30.488 96.8728 31.704C97.6621 32.92 98.5154 34.04 99.4328 35.064C100.371 36.088 101.331 36.9093 102.313 37.528C103.315 38.1253 104.307 38.4027 105.289 38.36L104.905 39.064C104.435 39.1067 103.998 39.16 103.593 39.224C103.187 39.3093 102.771 39.352 102.345 39.352Z" fill="black"/>
<path d="M116.032 39.768C113.131 39.768 110.923 39.2347 109.408 38.168C107.915 37.08 107.168 35.288 107.168 32.792C107.168 32.6427 107.168 32.4933 107.168 32.344C107.168 32.1947 107.179 32.0453 107.2 31.896C107.349 29.592 107.467 27.7573 107.552 26.392C107.637 25.0267 107.691 23.9707 107.712 23.224C107.755 22.456 107.776 21.8373 107.776 21.368C107.776 20.2373 107.68 19.4373 107.488 18.968C107.317 18.4773 106.859 18.232 106.112 18.232C105.749 18.232 105.259 18.296 104.64 18.424L105.152 17.464C105.472 17.5067 105.995 17.5707 106.72 17.656C107.445 17.72 108.363 17.752 109.472 17.752C110.283 17.752 111.115 17.7093 111.968 17.624C112.843 17.5387 113.643 17.464 114.368 17.4L113.632 18.264C113.547 18.2427 113.461 18.232 113.376 18.232C113.291 18.232 113.205 18.232 113.12 18.232C112.245 18.232 111.616 18.5307 111.232 19.128C110.869 19.704 110.624 20.504 110.496 21.528C110.432 22.04 110.357 22.7333 110.272 23.608C110.208 24.4827 110.144 25.4107 110.08 26.392C110.016 27.352 109.963 28.2587 109.92 29.112C109.877 29.9653 109.835 30.6267 109.792 31.096C109.771 31.3093 109.749 31.512 109.728 31.704C109.728 31.896 109.728 32.088 109.728 32.28C109.728 34.2427 110.251 35.768 111.296 36.856C112.363 37.944 113.963 38.488 116.096 38.488C118.613 38.488 120.565 37.8267 121.952 36.504C123.339 35.1813 124.107 33.3147 124.256 30.904C124.363 29.304 124.448 28.024 124.512 27.064C124.576 26.0827 124.619 25.2827 124.64 24.664C124.683 24.0453 124.704 23.4907 124.704 23C124.725 22.5093 124.736 21.9547 124.736 21.336C124.736 20.2693 124.565 19.4907 124.224 19C123.883 18.5093 123.285 18.264 122.432 18.264C122.219 18.264 121.995 18.2853 121.76 18.328C121.525 18.3493 121.259 18.3813 120.96 18.424L121.504 17.464C121.867 17.5067 122.389 17.5707 123.072 17.656C123.776 17.72 124.64 17.752 125.664 17.752C126.432 17.752 127.253 17.7093 128.128 17.624C129.024 17.5387 129.835 17.464 130.56 17.4L129.824 18.264C129.696 18.2427 129.579 18.232 129.472 18.232C129.365 18.2107 129.259 18.2 129.152 18.2C128.149 18.2 127.499 18.584 127.2 19.352C126.901 20.0987 126.709 21.08 126.624 22.296L126.08 30.392C125.867 33.4 124.864 35.7147 123.072 37.336C121.28 38.9573 118.933 39.768 116.032 39.768Z" fill="black"/>
<path d="M81.3332 11.25C81.3332 13.321 79.0944 15 76.3334 15C73.5721 15 71.3333 13.321 71.3333 11.25C71.3333 9.17895 73.5721 7.5 76.3334 7.5C79.0944 7.5 81.3332 9.17895 81.3332 11.25Z" fill="black"/>
<path d="M75.5 0.750994C75.5 0.336231 75.8733 0 76.3334 0C76.7934 0 77.1667 0.336231 77.1667 0.750994V5.99901C77.1667 6.41376 76.7934 6.75 76.3334 6.75C75.8733 6.75 75.5 6.41376 75.5 5.99901V0.750994Z" fill="black"/>
<path d="M72.1771 1.56578C72.1068 1.15515 72.4019 0.791369 72.8369 0.753262C73.2717 0.715156 73.6812 1.01715 73.7523 1.42778L74.6562 6.68425C74.7273 7.09489 74.432 7.45866 73.9972 7.49678C73.5622 7.53488 73.1521 7.23289 73.0818 6.82225L72.1771 1.56578Z" fill="black"/>
<path d="M68.1809 5.80495C67.8505 5.36005 67.9853 4.81866 68.4826 4.59572C68.9798 4.37275 69.6509 4.55267 69.9813 4.99754L71.9857 7.6951C72.3162 8.14 72.1814 8.68135 71.6842 8.90432C71.1869 9.1273 70.5166 8.94732 70.1855 8.50251L68.1809 5.80495Z" fill="black"/>
<path d="M78.9151 1.42778C78.9854 1.01715 79.3955 0.715156 79.8305 0.753262C80.2653 0.791371 80.5606 1.15515 80.4894 1.56578L79.5856 6.82225C79.5144 7.23289 79.1052 7.53488 78.6702 7.49678C78.2354 7.45866 77.9394 7.09489 78.0106 6.68425L78.9151 1.42778Z" fill="black"/>
<path d="M81.5265 3.64829C81.6322 3.24976 82.0417 2.9614 82.4413 3.00419C82.8414 3.047 83.0805 3.40475 82.9751 3.80328L81.9737 7.60173C81.8683 8.00022 81.4586 8.28858 81.0592 8.24579C80.6589 8.203 80.4198 7.8452 80.5245 7.44672L81.5265 3.64829Z" fill="black"/>
</svg>
