<svg width="124" height="20" viewBox="0 0 124 20" fill="none" xmlns="http://www.w3.org/2000/svg">
<g clip-path="url(#clip0_9_70)">
<mask id="mask0_9_70" style="mask-type:luminance" maskUnits="userSpaceOnUse" x="0" y="0" width="124" height="20">
<path d="M124 0H0V20H124V0Z" fill="white"/>
</mask>
<g mask="url(#mask0_9_70)">
<path d="M27.656 9.54398L28.808 9.59198C30.008 9.59198 31.112 9.39998 32.12 9.016C32.712 8.792 33.184 8.44 33.536 7.96C33.904 7.48 34.088 6.888 34.088 6.184C34.088 3.656 32.568 2.392 29.528 2.392L27.032 2.488V16.312C27.032 16.536 27.048 16.712 27.08 16.84C27.112 16.968 27.216 17.088 27.392 17.2C27.568 17.312 27.832 17.368 28.184 17.368H29.096V18.04H23V17.368H23.768C24.12 17.368 24.384 17.312 24.56 17.2C24.736 17.088 24.84 16.968 24.872 16.84C24.904 16.712 24.92 16.536 24.92 16.312V3.016C24.92 2.648 24.84 2.384 24.68 2.224C24.536 2.048 24.232 1.96 23.768 1.96H23V1.24H26.696L31.256 1C32.696 1 33.856 1.312 34.736 1.936C35.616 2.56 36.056 3.44 36.056 4.576C36.056 5.696 35.792 6.68 35.264 7.528C34.752 8.36 34.112 8.984 33.344 9.39998C31.888 10.168 30.584 10.552 29.432 10.552C28.76 10.552 28.232 10.536 27.848 10.504L27.656 9.54398Z" fill="white"/>
<path d="M55.576 17.8H49.48V17.128H50.248C50.6 17.128 50.864 17.072 51.04 16.96C51.216 16.832 51.32 16.704 51.352 16.576C51.384 16.448 51.4 16.264 51.4 16.024V9.59199H42.088V16.024C42.088 16.376 42.16 16.648 42.304 16.84C42.448 17.032 42.76 17.128 43.24 17.128H44.152V17.8H38.056V17.128H38.872C39.352 17.128 39.664 17.032 39.808 16.84C39.952 16.648 40.024 16.376 40.024 16.024V2.776C40.024 2.424 39.952 2.152 39.808 1.96C39.664 1.768 39.352 1.672 38.872 1.672H38.056V1H44.152V1.672H43.24C42.76 1.672 42.448 1.768 42.304 1.96C42.16 2.152 42.088 2.424 42.088 2.776V8.536H51.4V2.776C51.4 2.536 51.384 2.352 51.352 2.224C51.32 2.096 51.216 1.976 51.04 1.864C50.864 1.736 50.6 1.672 50.248 1.672H49.48V1H55.576V1.672H54.664C54.312 1.672 54.048 1.736 53.872 1.864C53.696 1.976 53.592 2.096 53.56 2.224C53.528 2.352 53.512 2.536 53.512 2.776V16.024C53.512 16.264 53.528 16.448 53.56 16.576C53.592 16.704 53.696 16.832 53.872 16.96C54.048 17.072 54.312 17.128 54.664 17.128H55.576V17.8Z" fill="white"/>
<path d="M74.664 18.232H68.52V17.56H69.2879C69.9919 17.56 70.3439 17.336 70.3439 16.888C70.3439 16.824 70.264 16.552 70.104 16.072L68.472 11.8H62.424L60.84 15.88C60.84 15.912 60.784 16.112 60.672 16.48C60.56 16.832 60.504 17.08 60.504 17.224C60.504 17.352 60.592 17.44 60.768 17.488C60.944 17.536 61.32 17.56 61.896 17.56H62.28V18.232H57.576V17.56H57.912C58.44 17.56 58.824 17.472 59.064 17.296C59.304 17.104 59.512 16.792 59.688 16.36L64.9679 2.584C65.048 2.568 65.192 2.456 65.4 2.248C65.608 2.024 65.8 1.8 65.976 1.576C66.152 1.336 66.2399 1.2 66.2399 1.168C66.2399 1.136 66.232 1.112 66.216 1.096L66.5519 1L72.456 16.456C72.632 16.824 72.808 17.104 72.984 17.296C73.176 17.472 73.448 17.56 73.8 17.56H74.664V18.232ZM68.04 10.792L65.4479 3.928L62.808 10.792H68.04Z" fill="white"/>
<path d="M82.76 17.8H76.664V17.128H77.48C77.96 17.128 78.272 17.032 78.416 16.84C78.56 16.648 78.632 16.376 78.632 16.024V2.776C78.632 2.424 78.56 2.152 78.416 1.96C78.272 1.768 77.96 1.672 77.48 1.672H76.664V1H82.76V1.672H81.848C81.368 1.672 81.056 1.768 80.912 1.96C80.768 2.152 80.696 2.424 80.696 2.776V16.024C80.696 16.376 80.768 16.648 80.912 16.84C81.056 17.032 81.368 17.128 81.848 17.128H82.76V17.8Z" fill="white"/>
<path d="M88.456 1.24L93.016 1C94.424 1 95.576 1.296 96.472 1.888C97.368 2.48 97.816 3.288 97.816 4.312C97.816 5.736 97.432 6.896 96.664 7.792C95.896 8.688 94.952 9.36798 93.832 9.83198L97.72 15.688C97.88 15.944 98.184 16.288 98.632 16.72C99.096 17.152 99.512 17.368 99.88 17.368H100.312V18.04H96.76C96.808 18.04 96.656 17.8 96.304 17.32C95.952 16.84 95.752 16.552 95.704 16.456L91.72 10.312C91.56 10.344 91.24 10.36 90.76 10.36C90.28 10.36 89.896 10.344 89.608 10.312L89.416 9.35198C89.64 9.38398 90.12 9.39998 90.856 9.39998C91.592 9.39998 92.328 9.30398 93.064 9.11198C93.8 8.92 94.448 8.56 95.008 8.032C95.568 7.488 95.848 6.792 95.848 5.944C95.848 3.576 94.328 2.392 91.288 2.392L88.792 2.488V16.264C88.792 16.504 88.808 16.688 88.84 16.816C88.872 16.944 88.976 17.072 89.152 17.2C89.328 17.312 89.592 17.368 89.944 17.368H90.856V18.04H84.76V17.368H85.528C85.88 17.368 86.144 17.312 86.32 17.2C86.496 17.072 86.6 16.944 86.632 16.816C86.664 16.688 86.68 16.504 86.68 16.264V3.016C86.68 2.648 86.6 2.384 86.44 2.224C86.296 2.048 85.992 1.96 85.528 1.96H84.76V1.24H88.456Z" fill="white"/>
<path d="M116.184 10.888V2.776C116.184 2.072 115.688 1.72 114.696 1.72H113.928V1H119.688V1.72H118.776C118.248 1.72 117.848 1.824 117.576 2.032C117.32 2.224 117.192 2.472 117.192 2.776V10.888C117.192 12.104 116.968 13.208 116.52 14.2C116.088 15.176 115.528 15.952 114.84 16.528C113.416 17.696 111.912 18.28 110.328 18.28C108.744 18.28 107.336 17.784 106.104 16.792C104.888 15.8 104.28 14.632 104.28 13.288V2.776C104.28 2.536 104.264 2.352 104.232 2.224C104.2 2.096 104.096 1.984 103.92 1.888C103.744 1.776 103.48 1.72 103.128 1.72H102.312V1H108.456V1.72H107.544C107.192 1.72 106.928 1.776 106.752 1.888C106.576 1.984 106.472 2.096 106.44 2.224C106.408 2.352 106.392 2.536 106.392 2.776V11.224C106.392 13 106.792 14.288 107.592 15.088C108.408 15.872 109.624 16.264 111.24 16.264C111.992 16.264 112.68 16.136 113.304 15.88C113.928 15.624 114.424 15.32 114.792 14.968C115.176 14.616 115.504 14.088 115.776 13.384C116.048 12.664 116.184 11.832 116.184 10.888Z" fill="white"/>
<path d="M18.9261 15.1283C18.9261 17.8189 16.3201 20.0001 13.1061 20.0001C9.89213 20.0001 7.28613 17.8189 7.28613 15.1283C7.28613 12.4377 9.89213 10.2565 13.1061 10.2565C16.3201 10.2565 18.9261 12.4377 18.9261 15.1283Z" fill="white"/>
<path d="M12.0791 1.027C12.0791 0.459802 12.5391 0 13.1061 0C13.6731 0 14.1331 0.459804 14.1331 1.027V8.20376C14.1331 8.77096 13.6731 9.23076 13.1061 9.23076C12.5391 9.23076 12.0791 8.77096 12.0791 8.20376V1.027Z" fill="white"/>
<path d="M8.07813 1.6511C7.98713 1.09321 8.36913 0.598967 8.93213 0.547193C9.49513 0.495419 10.0251 0.905714 10.1171 1.46361L11.2871 8.60524C11.3791 9.16314 10.9971 9.65737 10.4341 9.70915C9.87113 9.76092 9.34013 9.35063 9.24913 8.79273L8.07813 1.6511Z" fill="white"/>
<path d="M3.23214 7.63605C2.80814 7.08576 2.98114 6.41611 3.61914 6.14034C4.25714 5.86456 5.11814 6.0871 5.54214 6.63738L8.11414 9.97401C8.53814 10.5243 8.36514 11.1939 7.72714 11.4697C7.08914 11.7455 6.22914 11.5229 5.80414 10.9727L3.23214 7.63605Z" fill="white"/>
<path d="M16.1261 1.51311C16.2171 0.955214 16.7481 0.544919 17.3111 0.596693C17.8741 0.648468 18.2561 1.14271 18.1641 1.7006L16.9941 8.84223C16.9021 9.40013 16.3721 9.81043 15.8091 9.75865C15.2461 9.70688 14.8631 9.21264 14.9551 8.65474L16.1261 1.51311Z" fill="white"/>
<path d="M19.3622 4.96733C19.5082 4.42999 20.0752 4.04117 20.6282 4.09888C21.1822 4.15659 21.5131 4.63897 21.3671 5.17631L19.9811 10.2979C19.8351 10.8352 19.2681 11.224 18.7151 11.1663C18.1611 11.1086 17.8302 10.6262 17.9752 10.0889L19.3622 4.96733Z" fill="white"/>
</g>
</g>
<defs>
<clipPath id="clip0_9_70">
<rect width="124" height="20" fill="white"/>
</clipPath>
</defs>
</svg>
