<svg width="83" height="24" viewBox="0 0 83 24" fill="none" xmlns="http://www.w3.org/2000/svg">
<g filter="url(#filter0_d_2_18)">
<path d="M74.3931 0.539996L76.5531 0.599997C77.4331 0.599997 78.1265 0.546663 78.6331 0.439996C78.6865 0.519996 78.7131 0.619996 78.7131 0.739996L78.6731 0.939997C78.2731 1.03333 77.9465 1.21333 77.6931 1.48C77.4398 1.74666 77.2798 1.98666 77.2131 2.2C76.9065 3.09333 76.5865 5.46666 76.2531 9.32C76.0798 11.28 75.5065 12.7867 74.5331 13.84C73.5731 14.88 72.2331 15.4 70.5131 15.4C67.2465 15.4 65.6131 13.74 65.6131 10.42C65.6131 9.96666 65.7065 8.32666 65.8931 5.5C66.0931 2.67333 66.1931 1.22 66.1931 1.14C65.9665 1.1 65.5931 1.08 65.0731 1.08C65.0598 1.02666 65.0531 0.95333 65.0531 0.859997C65.0531 0.766663 65.0798 0.659996 65.1331 0.539996C65.1331 0.539996 65.7131 0.559996 66.8731 0.599997C67.9665 0.599997 68.8465 0.546663 69.5131 0.439996C69.5665 0.519996 69.5931 0.619996 69.5931 0.739996L69.5531 0.939997C68.9531 1.08666 68.5531 1.26666 68.3531 1.48C68.1531 1.69333 68.0131 2.01333 67.9331 2.44C67.7598 3.38666 67.5865 4.88 67.4131 6.92C67.2398 8.94666 67.1531 10.0067 67.1531 10.1C67.1531 11.4867 67.4531 12.5733 68.0531 13.36C68.6531 14.1467 69.5531 14.54 70.7531 14.54C72.3131 14.54 73.4398 14.0733 74.1331 13.14C74.8265 12.1933 75.2598 10.7533 75.4331 8.82C75.4598 8.44666 75.5065 7.9 75.5731 7.18C75.6398 6.44666 75.6798 5.95333 75.6931 5.7C75.7198 5.44666 75.7531 5.07333 75.7931 4.58C75.8331 4.08666 75.8531 3.7 75.8531 3.42C75.8665 3.12666 75.8798 2.78 75.8931 2.38C75.9065 1.98 75.9131 1.56666 75.9131 1.14C75.6465 1.1 75.1265 1.08 74.3531 1.08C74.3398 1.01333 74.3331 0.926663 74.3331 0.819996C74.3331 0.71333 74.3531 0.619997 74.3931 0.539996Z" fill="black"/>
<path d="M56.1727 15.06L54.3927 15C53.166 15 52.166 15.0533 51.3927 15.16C51.366 15.0533 51.3527 14.9667 51.3527 14.9L51.3727 14.66C51.7993 14.5667 52.1327 14.42 52.3727 14.22C52.626 14.0067 52.786 13.8133 52.8527 13.64C53.1593 12.9333 53.4393 11.14 53.6927 8.26C53.9593 5.36666 54.0927 3.5 54.0927 2.66C54.0927 1.80666 54.0393 1.38 53.9327 1.38C53.3593 1.38 52.8727 1.39333 52.4727 1.42C52.4327 1.34 52.4127 1.24666 52.4127 1.14C52.4127 1.02 52.4327 0.939997 52.4727 0.899996C52.4993 0.899996 52.8727 0.85333 53.5927 0.759997C55.1393 0.559996 56.526 0.459996 57.7527 0.459996C58.9927 0.459996 59.9793 0.786663 60.7127 1.44C61.4593 2.08 61.8327 2.94666 61.8327 4.04C61.8327 5.13333 61.546 6.02 60.9727 6.7C60.4127 7.36666 59.5527 7.92666 58.3927 8.38C58.726 9.15333 59.166 10.0867 59.7127 11.18C60.2727 12.2733 60.726 13.0733 61.0727 13.58C61.4327 14.0867 61.7393 14.36 61.9927 14.4C62.2593 14.44 62.666 14.46 63.2127 14.46C63.2527 14.58 63.2727 14.6733 63.2727 14.74C63.2727 14.8067 63.246 14.8933 63.1927 15C62.4327 15.04 61.7727 15.1133 61.2127 15.22C60.6527 15.34 60.3393 15.4 60.2727 15.4C59.926 15.4 59.0727 13.9333 57.7127 11L56.4927 8.28C57.786 7.82666 58.6727 7.29333 59.1527 6.68C59.6327 6.06666 59.8727 5.30666 59.8727 4.4C59.8727 3.48 59.6327 2.71333 59.1527 2.1C58.686 1.47333 58.0193 1.16 57.1527 1.16C56.846 1.16 56.466 1.21333 56.0127 1.32C55.786 2.53333 55.526 4.74666 55.2327 7.96L54.9127 11.64C54.846 12.4667 54.8127 13.1333 54.8127 13.64C54.8127 14.1333 54.8393 14.38 54.8927 14.38C55.106 14.42 55.5527 14.44 56.2327 14.44C56.246 14.5067 56.2527 14.6 56.2527 14.72C56.2527 14.8267 56.226 14.94 56.1727 15.06Z" fill="black"/>
<path d="M45.8553 0.539996L48.4153 0.599997L50.6953 0.539996C50.722 0.59333 50.7353 0.666663 50.7353 0.759997L50.6553 1.08C50.1353 1.08 49.7353 1.1 49.4553 1.14C49.242 1.16666 49.0087 2.69333 48.7553 5.72L48.4953 8.98C48.3086 11.1667 48.2153 12.6267 48.2153 13.36C48.2153 14.0933 48.2353 14.46 48.2753 14.46C48.5953 14.5 49.2153 14.52 50.1353 14.52C50.162 14.5733 50.1753 14.6333 50.1753 14.7C50.1753 14.7533 50.1487 14.8733 50.0953 15.06L47.5353 15C46.3086 15 45.282 15.0533 44.4553 15.16C44.402 15.0533 44.3753 14.9467 44.3753 14.84L44.4153 14.68C45.162 14.52 45.642 14.3333 45.8553 14.12C46.082 13.8933 46.242 13.54 46.3353 13.06C46.6153 11.54 46.8286 9.84 46.9753 7.96L47.1553 5.72C47.302 4.02666 47.3753 2.84 47.3753 2.16C47.3753 1.48 47.3287 1.14 47.2353 1.14C46.7953 1.1 46.3153 1.08 45.7953 1.08C45.782 1.02666 45.7753 0.946663 45.7753 0.839997C45.7753 0.73333 45.802 0.63333 45.8553 0.539996Z" fill="black"/>
<path d="M35.0583 8.84L37.2183 8.92C37.9916 8.92 38.6316 8.9 39.1383 8.86L37.9183 2.74L35.0583 8.84ZM43.1583 15.06L41.0583 15C40.1516 15 39.3316 15.0533 38.5983 15.16C38.5716 15.1333 38.5583 15.06 38.5583 14.94L38.5983 14.66C39.145 14.54 39.5183 14.3933 39.7183 14.22C39.9316 14.0467 40.0383 13.8267 40.0383 13.56C40.0383 13.2933 39.9983 12.98 39.9183 12.62L39.2783 9.62C38.7183 9.58 38.0116 9.56 37.1583 9.56L34.7583 9.62L34.1583 10.9C33.4383 12.3933 33.045 13.5667 32.9783 14.42C33.245 14.4333 33.665 14.44 34.2383 14.44C34.2516 14.5067 34.2583 14.6 34.2583 14.72C34.2583 14.8267 34.2316 14.94 34.1783 15.06L32.2783 15C31.5316 15 30.8583 15.0533 30.2583 15.16C30.2183 15 30.1983 14.8933 30.1983 14.84L30.2383 14.66C30.8783 14.4733 31.3583 14.18 31.6783 13.78C31.9983 13.38 32.505 12.4733 33.1983 11.06L37.9983 1.24L38.1183 0.679996L39.1583 0.339996L41.5383 11.62C41.8716 13.0733 42.1316 13.9933 42.3183 14.38C42.6516 14.42 42.9583 14.44 43.2383 14.44C43.265 14.48 43.2783 14.5533 43.2783 14.66C43.2783 14.7667 43.2383 14.9 43.1583 15.06Z" fill="black"/>
<path d="M26.0091 0.539996L27.8491 0.599997C28.9291 0.599997 29.7824 0.57333 30.4091 0.519997C30.4624 0.57333 30.4891 0.67333 30.4891 0.819996L30.4691 1.02C29.9624 1.16666 29.6091 1.37333 29.4091 1.64C29.2091 1.90666 29.0691 2.25333 28.9891 2.68C28.7357 3.98666 28.4957 5.98 28.2691 8.66L28.0091 11.64C27.9424 12.44 27.9091 13.1 27.9091 13.62C27.9091 14.1267 27.9357 14.38 27.9891 14.38C28.2157 14.42 28.6557 14.44 29.3091 14.44C29.3357 14.5067 29.3491 14.58 29.3491 14.66C29.3491 14.74 29.3224 14.8733 29.2691 15.06L27.3891 15C26.1091 15 25.0624 15.0533 24.2491 15.16C24.2091 15.1067 24.1891 15.02 24.1891 14.9L24.2291 14.66C24.9357 14.5267 25.4091 14.3267 25.6491 14.06C25.9024 13.78 26.0757 13.4 26.1691 12.92C26.3424 11.9733 26.5557 10.32 26.8091 7.96L23.4491 7.86C22.4757 7.86 21.1891 7.89333 19.5891 7.96L19.2691 11.64C19.1891 12.6 19.1491 13.3 19.1491 13.74C19.1491 14.1667 19.1757 14.38 19.2291 14.38C19.4424 14.42 19.8557 14.44 20.4691 14.44C20.4824 14.5067 20.4891 14.6 20.4891 14.72C20.4891 14.8267 20.4624 14.94 20.4091 15.06L18.6291 15C17.4557 15 16.4824 15.0533 15.7091 15.16C15.6824 15.0533 15.6691 14.9667 15.6691 14.9L15.6891 14.66C16.1157 14.5667 16.4491 14.42 16.6891 14.22C16.9424 14.0067 17.1024 13.8133 17.1691 13.64C17.5157 12.8267 17.8224 10.7333 18.0891 7.36C18.3557 3.98666 18.4891 2.10666 18.4891 1.72C18.4891 1.33333 18.4624 1.14 18.4091 1.14C18.1824 1.1 17.7757 1.08 17.1891 1.08C17.1624 1.02666 17.1491 0.97333 17.1491 0.919996C17.1491 0.85333 17.1757 0.726663 17.2291 0.539996L19.0691 0.599997C20.1757 0.599997 21.0424 0.57333 21.6691 0.519997C21.7224 0.599996 21.7491 0.699996 21.7491 0.819996L21.7091 1.02C21.2024 1.16666 20.8557 1.36666 20.6691 1.62C20.4824 1.87333 20.3291 2.31333 20.2091 2.94C20.0891 3.55333 19.9091 4.93333 19.6691 7.08C20.8424 7.13333 22.1291 7.16 23.5291 7.16L26.8891 7.08L27.1491 3.96C27.2291 3 27.2691 2.29333 27.2691 1.84C27.2691 1.37333 27.2424 1.14 27.1891 1.14C26.9491 1.1 26.5357 1.08 25.9491 1.08C25.9357 1.02666 25.9291 0.946663 25.9291 0.839997C25.9291 0.73333 25.9557 0.63333 26.0091 0.539996Z" fill="black"/>
<path d="M8.98001 9.32C8.96667 9.25333 8.96 9.15333 8.96 9.02C8.96 8.88666 9.00667 8.74 9.10001 8.58C9.26001 8.59333 9.53334 8.6 9.92 8.6C10.9333 8.6 11.7667 8.20666 12.42 7.42C13.0867 6.63333 13.42 5.71333 13.42 4.66C13.42 3.59333 13.1533 2.74666 12.62 2.12C12.0867 1.48 11.3667 1.16 10.46 1.16C9.96667 1.16 9.49334 1.21333 9.04 1.32C8.81334 2.54666 8.55334 4.76 8.26 7.96L7.94001 11.64C7.87334 12.4667 7.84 13.1333 7.84 13.64C7.84 14.1333 7.86667 14.38 7.92 14.38C8.24 14.42 8.95334 14.44 10.06 14.44C10.0733 14.5067 10.08 14.6 10.08 14.72C10.08 14.8267 10.0533 14.94 10 15.06L7.42 15C6.19334 15 5.19334 15.0533 4.42 15.16C4.39334 15.0533 4.38 14.9667 4.38 14.9L4.4 14.66C4.82667 14.5667 5.16 14.42 5.4 14.22C5.65334 14.0067 5.81334 13.8133 5.88001 13.64C6.18667 12.9333 6.46667 11.14 6.72001 8.26C6.98667 5.36666 7.12 3.5 7.12 2.66C7.12 1.80666 7.06667 1.38 6.96 1.38C6.38667 1.38 5.9 1.39333 5.5 1.42C5.46 1.34 5.44 1.24666 5.44 1.14C5.44 1.02 5.46 0.939997 5.5 0.899996C5.56667 0.899996 5.86 0.873329 6.38 0.819996C6.91334 0.753329 7.39334 0.693329 7.82 0.639996C8.98001 0.519996 10.0533 0.459996 11.04 0.459996C12.32 0.459996 13.3467 0.793329 14.12 1.46C14.8933 2.11333 15.28 3.08666 15.28 4.38C15.28 5.66 14.8 6.80666 13.84 7.82C12.8933 8.83333 11.7267 9.34 10.34 9.34C9.64667 9.34 9.19334 9.33333 8.98001 9.32Z" fill="black"/>
</g>
<defs>
<filter id="filter0_d_2_18" x="0.380005" y="0.339996" width="82.3331" height="23.06" filterUnits="userSpaceOnUse" color-interpolation-filters="sRGB">
<feFlood flood-opacity="0" result="BackgroundImageFix"/>
<feColorMatrix in="SourceAlpha" type="matrix" values="0 0 0 0 0 0 0 0 0 0 0 0 0 0 0 0 0 0 127 0" result="hardAlpha"/>
<feOffset dy="4"/>
<feGaussianBlur stdDeviation="2"/>
<feComposite in2="hardAlpha" operator="out"/>
<feColorMatrix type="matrix" values="0 0 0 0 0 0 0 0 0 0 0 0 0 0 0 0 0 0 0.25 0"/>
<feBlend mode="normal" in2="BackgroundImageFix" result="effect1_dropShadow_2_18"/>
<feBlend mode="normal" in="SourceGraphic" in2="effect1_dropShadow_2_18" result="shape"/>
</filter>
</defs>
</svg>
