<svg width="124" height="20" viewBox="0 0 124 20" fill="none" xmlns="http://www.w3.org/2000/svg">
<rect width="124" height="20" fill="#F5F5F5"/>
<g clip-path="url(#clip0_0_1)">
<mask id="mask0_0_1" style="mask-type:luminance" maskUnits="userSpaceOnUse" x="0" y="0" width="124" height="20">
<path d="M124 0H0V20H124V0Z" fill="white"/>
</mask>
<g mask="url(#mask0_0_1)">
<path d="M28.656 9.54398L29.808 9.59198C31.008 9.59198 32.112 9.39998 33.12 9.016C33.712 8.792 34.184 8.44 34.536 7.96C34.904 7.48 35.088 6.888 35.088 6.184C35.088 3.656 33.568 2.392 30.528 2.392L28.032 2.488V16.312C28.032 16.536 28.048 16.712 28.08 16.84C28.112 16.968 28.216 17.088 28.392 17.2C28.568 17.312 28.832 17.368 29.184 17.368H30.096V18.04H24V17.368H24.768C25.12 17.368 25.384 17.312 25.56 17.2C25.736 17.088 25.84 16.968 25.872 16.84C25.904 16.712 25.92 16.536 25.92 16.312V3.016C25.92 2.648 25.84 2.384 25.68 2.224C25.536 2.048 25.232 1.96 24.768 1.96H24V1.24H27.696L32.256 1C33.696 1 34.856 1.312 35.736 1.936C36.616 2.56 37.056 3.44 37.056 4.576C37.056 5.696 36.792 6.68 36.264 7.528C35.752 8.36 35.112 8.984 34.344 9.39998C32.888 10.168 31.584 10.552 30.432 10.552C29.76 10.552 29.232 10.536 28.848 10.504L28.656 9.54398Z" fill="black"/>
<path d="M56.576 17.8H50.48V17.128H51.248C51.6 17.128 51.864 17.072 52.04 16.96C52.216 16.832 52.32 16.704 52.352 16.576C52.384 16.448 52.4 16.264 52.4 16.024V9.59199H43.088V16.024C43.088 16.376 43.16 16.648 43.304 16.84C43.448 17.032 43.76 17.128 44.24 17.128H45.152V17.8H39.056V17.128H39.872C40.352 17.128 40.664 17.032 40.808 16.84C40.952 16.648 41.024 16.376 41.024 16.024V2.776C41.024 2.424 40.952 2.152 40.808 1.96C40.664 1.768 40.352 1.672 39.872 1.672H39.056V1H45.152V1.672H44.24C43.76 1.672 43.448 1.768 43.304 1.96C43.16 2.152 43.088 2.424 43.088 2.776V8.536H52.4V2.776C52.4 2.536 52.384 2.352 52.352 2.224C52.32 2.096 52.216 1.976 52.04 1.864C51.864 1.736 51.6 1.672 51.248 1.672H50.48V1H56.576V1.672H55.664C55.312 1.672 55.048 1.736 54.872 1.864C54.696 1.976 54.592 2.096 54.56 2.224C54.528 2.352 54.512 2.536 54.512 2.776V16.024C54.512 16.264 54.528 16.448 54.56 16.576C54.592 16.704 54.696 16.832 54.872 16.96C55.048 17.072 55.312 17.128 55.664 17.128H56.576V17.8Z" fill="black"/>
<path d="M75.664 18.232H69.52V17.56H70.2879C70.9919 17.56 71.3439 17.336 71.3439 16.888C71.3439 16.824 71.264 16.552 71.104 16.072L69.472 11.8H63.424L61.84 15.88C61.84 15.912 61.784 16.112 61.672 16.48C61.56 16.832 61.504 17.08 61.504 17.224C61.504 17.352 61.592 17.44 61.768 17.488C61.944 17.536 62.32 17.56 62.896 17.56H63.28V18.232H58.576V17.56H58.912C59.44 17.56 59.824 17.472 60.064 17.296C60.304 17.104 60.512 16.792 60.688 16.36L65.9679 2.584C66.048 2.568 66.192 2.456 66.4 2.248C66.608 2.024 66.8 1.8 66.976 1.576C67.152 1.336 67.2399 1.2 67.2399 1.168C67.2399 1.136 67.232 1.112 67.216 1.096L67.5519 1L73.456 16.456C73.632 16.824 73.808 17.104 73.984 17.296C74.176 17.472 74.448 17.56 74.8 17.56H75.664V18.232ZM69.04 10.792L66.4479 3.928L63.808 10.792H69.04Z" fill="black"/>
<path d="M83.76 17.8H77.664V17.128H78.48C78.96 17.128 79.272 17.032 79.416 16.84C79.56 16.648 79.632 16.376 79.632 16.024V2.776C79.632 2.424 79.56 2.152 79.416 1.96C79.272 1.768 78.96 1.672 78.48 1.672H77.664V1H83.76V1.672H82.848C82.368 1.672 82.056 1.768 81.912 1.96C81.768 2.152 81.696 2.424 81.696 2.776V16.024C81.696 16.376 81.768 16.648 81.912 16.84C82.056 17.032 82.368 17.128 82.848 17.128H83.76V17.8Z" fill="black"/>
<path d="M89.456 1.24L94.016 1C95.424 1 96.576 1.296 97.472 1.888C98.368 2.48 98.816 3.288 98.816 4.312C98.816 5.736 98.432 6.896 97.664 7.792C96.896 8.688 95.952 9.36798 94.832 9.83198L98.72 15.688C98.88 15.944 99.184 16.288 99.632 16.72C100.096 17.152 100.512 17.368 100.88 17.368H101.312V18.04H97.76C97.808 18.04 97.656 17.8 97.304 17.32C96.952 16.84 96.752 16.552 96.704 16.456L92.72 10.312C92.56 10.344 92.24 10.36 91.76 10.36C91.28 10.36 90.896 10.344 90.608 10.312L90.416 9.35198C90.64 9.38398 91.12 9.39998 91.856 9.39998C92.592 9.39998 93.328 9.30398 94.064 9.11198C94.8 8.92 95.448 8.56 96.008 8.032C96.568 7.488 96.848 6.792 96.848 5.944C96.848 3.576 95.328 2.392 92.288 2.392L89.792 2.488V16.264C89.792 16.504 89.808 16.688 89.84 16.816C89.872 16.944 89.976 17.072 90.152 17.2C90.328 17.312 90.592 17.368 90.944 17.368H91.856V18.04H85.76V17.368H86.528C86.88 17.368 87.144 17.312 87.32 17.2C87.496 17.072 87.6 16.944 87.632 16.816C87.664 16.688 87.68 16.504 87.68 16.264V3.016C87.68 2.648 87.6 2.384 87.44 2.224C87.296 2.048 86.992 1.96 86.528 1.96H85.76V1.24H89.456Z" fill="black"/>
<path d="M117.184 10.888V2.776C117.184 2.072 116.688 1.72 115.696 1.72H114.928V1H120.688V1.72H119.776C119.248 1.72 118.848 1.824 118.576 2.032C118.32 2.224 118.192 2.472 118.192 2.776V10.888C118.192 12.104 117.968 13.208 117.52 14.2C117.088 15.176 116.528 15.952 115.84 16.528C114.416 17.696 112.912 18.28 111.328 18.28C109.744 18.28 108.336 17.784 107.104 16.792C105.888 15.8 105.28 14.632 105.28 13.288V2.776C105.28 2.536 105.264 2.352 105.232 2.224C105.2 2.096 105.096 1.984 104.92 1.888C104.744 1.776 104.48 1.72 104.128 1.72H103.312V1H109.456V1.72H108.544C108.192 1.72 107.928 1.776 107.752 1.888C107.576 1.984 107.472 2.096 107.44 2.224C107.408 2.352 107.392 2.536 107.392 2.776V11.224C107.392 13 107.792 14.288 108.592 15.088C109.408 15.872 110.624 16.264 112.24 16.264C112.992 16.264 113.68 16.136 114.304 15.88C114.928 15.624 115.424 15.32 115.792 14.968C116.176 14.616 116.504 14.088 116.776 13.384C117.048 12.664 117.184 11.832 117.184 10.888Z" fill="black"/>
<path d="M18.9261 15.1283C18.9261 17.8189 16.3201 20.0001 13.1061 20.0001C9.89213 20.0001 7.28613 17.8189 7.28613 15.1283C7.28613 12.4377 9.89213 10.2565 13.1061 10.2565C16.3201 10.2565 18.9261 12.4377 18.9261 15.1283Z" fill="black"/>
<path d="M12.0791 1.027C12.0791 0.459802 12.5391 0 13.1061 0C13.6731 0 14.1331 0.459804 14.1331 1.027V8.20376C14.1331 8.77096 13.6731 9.23076 13.1061 9.23076C12.5391 9.23076 12.0791 8.77096 12.0791 8.20376V1.027Z" fill="black"/>
<path d="M8.07813 1.6511C7.98713 1.09321 8.36913 0.598967 8.93213 0.547193C9.49513 0.495419 10.0251 0.905714 10.1171 1.46361L11.2871 8.60524C11.3791 9.16314 10.9971 9.65737 10.4341 9.70915C9.87113 9.76092 9.34013 9.35063 9.24913 8.79273L8.07813 1.6511Z" fill="black"/>
<path d="M3.23214 7.63605C2.80814 7.08576 2.98114 6.41611 3.61914 6.14034C4.25714 5.86456 5.11814 6.0871 5.54214 6.63738L8.11414 9.97401C8.53814 10.5243 8.36514 11.1939 7.72714 11.4697C7.08914 11.7455 6.22914 11.5229 5.80414 10.9727L3.23214 7.63605Z" fill="black"/>
<path d="M16.1261 1.51311C16.2171 0.955214 16.7481 0.544919 17.3111 0.596693C17.8741 0.648468 18.2561 1.14271 18.1641 1.7006L16.9941 8.84223C16.9021 9.40013 16.3721 9.81043 15.8091 9.75865C15.2461 9.70688 14.8631 9.21264 14.9551 8.65474L16.1261 1.51311Z" fill="black"/>
<path d="M19.3622 4.96733C19.5082 4.42999 20.0752 4.04117 20.6282 4.09888C21.1822 4.15659 21.5131 4.63897 21.3671 5.17631L19.9811 10.2979C19.8351 10.8352 19.2681 11.224 18.7151 11.1663C18.1611 11.1086 17.8302 10.6262 17.9752 10.0889L19.3622 4.96733Z" fill="black"/>
</g>
</g>
<defs>
<clipPath id="clip0_0_1">
<rect width="124" height="20" fill="white"/>
</clipPath>
</defs>
</svg>
